Coordinates
version=1
nRows=14
nColumns=24
inDegrees=yes

Units are S.I. units (second, meters, Newtons, ...)
Angles are in degrees.

endheader
time	pelvis_tilt	pelvis_list	pelvis_rotation	pelvis_tx	pelvis_ty	pelvis_tz	hip_flexion_r	hip_adduction_r	hip_rotation_r	knee_angle_r	ankle_angle_r	subtalar_angle_r	mtp_angle_r	hip_flexion_l	hip_adduction_l	hip_rotation_l	knee_angle_l	ankle_angle_l	subtalar_angle_l	mtp_angle_l	lumbar_extension	lumbar_bending	lumbar_rotation
      1.06300000	     -1.52682882	     -4.00782575	     -1.11953083	     -0.13252950	      1.04817566	      0.34422831	    -12.08231049	      9.32942135	     -0.43308657	     -6.11781307	     10.07600781	     -8.63173381	     -1.98895724	     22.26352067	     -1.61459255	     -7.41227972	      3.04396736	      5.62978179	      6.62795508	     -0.49093123	      5.76561265	      7.74116459	     -0.08029807
      1.06716667	     -1.52924553	     -4.03999398	     -1.11454048	     -0.12701744	      1.04759894	      0.34417057	    -12.19120313	      9.35044885	     -0.40763166	     -6.54457644	     10.05484252	     -8.61272298	     -1.98981322	     22.25324130	     -1.56391645	     -7.38759590	      3.00771576	      5.62761941	      6.66815802	     -0.49753238	      5.79397509	      7.71601546	     -0.07963650
      1.07133333	     -1.53844381	     -4.04900982	     -1.11123992	     -0.12138484	      1.04705141	      0.34412268	    -12.28750786	      9.34433296	     -0.39582039	     -6.99304502	     10.05319027	     -8.60350808	     -1.99012993	     22.24303752	     -1.49291859	     -7.36142630	      2.90423999	      5.61163251	      6.70490231	     -0.50359292	      5.81970960	      7.69430787	     -0.07736179
      1.07550000	     -1.55459159	     -4.05041695	     -1.10748186	     -0.11569771	      1.04651977	      0.34403146	    -12.35159914	      9.32321203	     -0.49507848	     -7.49785643	     10.13623379	     -8.53901861	     -1.98964203	     22.25081993	     -1.41308733	     -7.41180004	      2.71106941	      5.54789931	      6.76558479	     -0.52324052	      5.79020276	      7.68682806	     -0.07560813
      1.07966667	     -1.53735223	     -4.05548341	     -1.08772285	     -0.10998279	      1.04604912	      0.34401926	    -12.46042571	      9.31834344	     -0.45922199	     -7.98164603	     10.11657537	     -8.51377025	     -1.98874643	     22.21798077	     -1.34620118	     -7.37685343	      2.46027541	      5.50853156	      6.77756649	     -0.52789345	      5.84992967	      7.64707767	     -0.06410872
      1.08383333	     -1.55324484	     -4.05287558	     -1.09485832	     -0.10422299	      1.04557140	      0.34397399	    -12.49550930	      9.29023123	     -0.56762738	     -8.54782536	     10.13952251	     -8.42826890	     -1.98473020	     22.22300643	     -1.27649951	     -7.43873235	      2.14747325	      5.36674607	      6.75390820	     -0.54314256	      5.82966109	      7.61478699	     -0.04919983
      1.08800000	     -1.52579278	     -4.05516897	     -1.08504079	     -0.09842452	      1.04517899	      0.34401294	    -12.58859186	      9.27958880	     -0.53699357	     -9.09039659	     10.10266554	     -8.40041013	     -1.98278796	     22.16694750	     -1.22058370	     -7.39576026	      1.80652887	      5.29743783	      6.74139876	     -0.54653108	      5.90026898	      7.56932007	     -0.03383129
      1.09216667	     -1.54415039	     -4.04187696	     -1.09762073	     -0.09257837	      1.04476191	      0.34395917	    -12.58403987	      9.23123921	     -0.71544620	     -9.73054658	     10.06564617	     -8.24857692	     -1.97206047	     22.16309548	     -1.14612489	     -7.48132881	      1.42573594	      4.99968589	      6.59098196	     -0.56116682	      5.86529076	      7.53711792	     -0.00335954
      1.09633333	     -1.54550982	     -4.02951177	     -1.11851897	     -0.08668146	      1.04440930	      0.34394825	    -12.59347796	      9.18245931	     -0.83502020	    -10.38201370	      9.99894754	     -8.05770338	     -1.95579857	     22.11329006	     -1.08210406	     -7.45581921	      1.05431545	      4.69108088	      6.38889649	     -0.57192731	      5.89523315	      7.48997096	      0.04223709
      1.10050000	     -1.50503291	     -4.02381496	     -1.11385215	     -0.08076657	      1.04413084	      0.34404389	    -12.65698614	      9.15896797	     -0.81009980	    -11.01703656	      9.93577451	     -8.02780554	     -1.95147328	     22.01050691	     -1.03630401	     -7.38036350	      0.65884491	      4.59411521	      6.34076886	     -0.57307624	      5.98845422	      7.42875176	      0.06372079
      1.10466667	     -1.52026771	     -3.98775972	     -1.09800360	     -0.07471763	      1.04382238	      0.34387930	    -12.61708445	      9.07115532	     -1.09006690	    -11.72226050	      9.74359034	     -7.60118979	     -1.90401173	     21.94794917	     -0.92619152	     -7.29222452	      0.30086685	      3.86552571	      5.70945197	     -0.57943311	      6.08506996	      7.40942006	      0.15942080
      1.10883333	     -1.54629866	     -3.95537963	     -1.16131022	     -0.06870228	      1.04355927	      0.34392078	    -12.53893853	      8.97932122	     -1.24700859	    -12.50794477	      9.65246948	     -7.53611366	     -1.88256286	     21.86683923	     -0.86477105	     -7.20426731	     -0.05118681	      3.67474702	      5.46341647	     -0.57525780	      6.02056057	      7.30603268	      0.18601027
      1.11300000	     -1.54084543	     -3.92004595	     -1.17363266	     -0.06263901	      1.04336590	      0.34383517	    -12.47813598	      8.88297313	     -1.50213614	    -13.30159724	      9.39495504	     -7.30056751	     -1.84415550	     21.75282277	     -0.77921881	     -7.13435925	     -0.39536140	      3.13943888	      5.02679573	     -0.56991249	      6.06826189	      7.26331859	      0.23237545
      1.11716667	     -1.47605919	     -3.91284186	     -1.17417120	     -0.05665749	      1.04328464	      0.34397184	    -12.48973228	      8.84462731	     -1.49833978	    -14.08136794	      9.29125196	     -7.26027845	     -1.83526458	     21.57233394	     -0.75469746	     -7.02028308	     -0.76446366	      3.00581575	      4.96032951	     -0.56739399	      6.18062192	      7.17843881	      0.25522820
